<?xml version="1.0" encoding="utf-8"?>
<!-- Generator: Adobe Illustrator 23.0.0, SVG Export Plug-In . SVG Version: 6.00 Build 0)  -->
<svg version="1.1" id="Layer_1" xmlns="http://www.w3.org/2000/svg" xmlns:xlink="http://www.w3.org/1999/xlink" x="0px" y="0px"
	 viewBox="0 0 28.35 28.35" style="enable-background:new 0 0 28.35 28.35;" xml:space="preserve">
<style type="text/css">
	.st0{fill:#076364;}
</style>
<path class="st0" d="M26.41,11.04C18.99,22.43,9,25.75,3.43,26.47c-0.13,0.02,0.25-0.04,0.13-0.02c8.92-1.57,13.97-6.56,21.97-17.07
	c0,0-1.06-2.71-5.08-5.44c0,0-1.53,15.09-13.53,21.06C17.8,18.43,18.6,2.86,18.6,2.86s-1.9-1.72-6.59-2.26
	C17.32,23.62,0.39,27.13,0.39,27.13c14.92-0.62,26.23-3.7,26.23-3.7s0.21,1.24-1.09,3.7c2.07-1.93,2.64-5.76,2.64-5.76
	c-6.32,2.33-13.27,3.54-20.8,4.7c8.63-1.64,17.11-4.32,20.98-6.64C28.54,14.88,26.41,11.04,26.41,11.04"/>
<polygon class="st0" points="8.88,0.6 9.23,1.89 10.56,1.96 9.45,2.69 9.8,3.98 8.76,3.14 7.64,3.87 8.11,2.62 7.07,1.79 8.41,1.85 
	"/>
<polygon class="st0" points="9.94,7.58 10.26,8.76 11.48,8.82 10.46,9.48 10.78,10.66 9.83,9.9 8.8,10.56 9.24,9.42 8.29,8.66 
	9.51,8.72 "/>
<polygon class="st0" points="9.26,14.25 9.55,15.31 10.64,15.36 9.72,15.96 10.01,17.01 9.16,16.32 8.25,16.92 8.64,15.9 
	7.79,15.22 8.88,15.27 "/>
<polygon class="st0" points="5.75,19.31 6,20.24 6.95,20.28 6.15,20.8 6.4,21.73 5.66,21.13 4.86,21.65 5.2,20.76 4.46,20.16 
	5.41,20.21 "/>
<polygon class="st0" points="1.09,23.13 1.31,23.91 2.11,23.95 1.44,24.39 1.65,25.17 1.02,24.66 0.34,25.1 0.63,24.35 0,23.84 
	0.81,23.88 "/>
</svg>
