<?xml version="1.0" encoding="utf-8"?>
<!-- Generator: Adobe Illustrator 23.0.0, SVG Export Plug-In . SVG Version: 6.00 Build 0)  -->
<svg version="1.1" id="Layer_1" xmlns="http://www.w3.org/2000/svg" x="0px"
     y="0px"
     viewBox="0 0 293.93 170.14" style="enable-background:new 0 0 293.93 170.14;" xml:space="preserve">
<style type="text/css">
	.st0{fill:#FFFFFF;}
</style>
    <g>
	<path class="st0" d="M190.46,41.48C163.45,82.92,127.08,95,106.83,97.64c-0.46,0.07,0.93-0.14,0.46-0.07
		c32.47-5.7,50.84-23.89,79.95-62.13c0,0-3.85-9.87-18.49-19.79c0,0-5.56,54.94-49.25,76.64c39.61-23.9,42.53-80.56,42.53-80.56
		s-6.91-6.25-23.99-8.22c19.33,83.75-42.29,96.54-42.29,96.54c54.3-2.27,95.46-13.47,95.46-13.47s0.75,4.5-3.97,13.47
		c7.52-7.02,9.59-20.96,9.59-20.96c-23,8.49-48.3,12.88-75.72,17.1c31.41-5.96,62.28-15.71,76.34-24.17
		C198.2,55.45,190.46,41.48,190.46,41.48"/>
        <polygon class="st0" points="126.66,3.5 127.93,8.2 132.79,8.44 128.72,11.1 129.99,15.79 126.2,12.74 122.13,15.4 123.86,10.86
		120.08,7.81 124.93,8.05 	"/>
        <polygon class="st0" points="130.52,28.89 131.68,33.17 136.11,33.39 132.4,35.82 133.56,40.11 130.1,37.32 126.38,39.75
		127.96,35.6 124.51,32.82 128.94,33.04 	"/>
        <polygon class="st0" points="128.05,53.18 129.09,57.01 133.05,57.2 129.73,59.38 130.77,63.21 127.68,60.72 124.35,62.89
		125.77,59.18 122.67,56.69 126.64,56.89 	"/>
        <polygon class="st0" points="115.26,71.6 116.17,74.95 119.64,75.12 116.73,77.02 117.64,80.37 114.93,78.19 112.03,80.09
		113.26,76.85 110.56,74.67 114.03,74.84 	"/>
        <polygon class="st0" points="98.32,85.48 99.09,88.32 102.03,88.46 99.56,90.07 100.33,92.91 98.04,91.06 95.58,92.67 96.63,89.92
		94.34,88.08 97.27,88.23 	"/>
        <path class="st0" d="M23.96,138.29H3.32v-0.28c0.31-0.26,0.54-0.7,0.71-1.31c0.14-0.51,0.27-1.17,0.38-1.99
		c0.04-0.45,0.09-1.12,0.13-2.02v-1.46v-11.59v-1.09c-0.04-0.48-0.09-0.87-0.13-1.17c-0.1-0.44-0.22-0.84-0.38-1.19
		c-0.16-0.36-0.4-0.68-0.71-0.94v-0.28h20.64l1.38,4.39l-0.28,0.16c-0.42-0.29-0.92-0.53-1.51-0.71c-0.94-0.23-1.63-0.38-2.05-0.45
		c-1-0.13-1.8-0.21-2.42-0.25c-1.12-0.04-1.97-0.06-2.56-0.06h-8v7.07h15.1l0.13,0.26l-2.42,3.71h-0.35
		c-0.26-0.18-0.56-0.32-0.9-0.44c-0.6-0.15-1.02-0.24-1.25-0.3c-0.65-0.08-1.13-0.13-1.45-0.16c-0.34-0.02-0.83-0.03-1.48-0.03h-7.4
		v7.04h5.95c0.37,0,1.25-0.02,2.63-0.06c0.66-0.02,1.76-0.09,3.3-0.22c1.1-0.09,2.19-0.24,3.29-0.42c1.01-0.14,1.93-0.37,2.76-0.67
		l0.21,0.17L23.96,138.29z"/>
        <path class="st0" d="M36.66,128.27c0,0.96,0.13,1.91,0.38,2.85c0.23,0.9,0.65,1.67,1.27,2.31c0.59,0.66,1.41,1.17,2.46,1.53
		c1.05,0.37,2.34,0.55,3.86,0.55c1.56,0,2.86-0.18,3.91-0.55c1.02-0.35,1.85-0.86,2.48-1.53c0.61-0.65,1.05-1.42,1.31-2.31
		c0.25-0.94,0.38-1.89,0.38-2.85v-8.62v-1.09c-0.04-0.49-0.1-0.88-0.16-1.17c-0.1-0.44-0.22-0.84-0.38-1.19
		c-0.17-0.35-0.42-0.67-0.77-0.94v-0.28h6.59v0.28c-0.34,0.28-0.59,0.59-0.74,0.94c-0.19,0.45-0.31,0.84-0.36,1.19
		c-0.09,0.37-0.13,0.77-0.13,1.17c-0.02,0.28-0.03,0.65-0.03,1.09v9.23c0,1.53-0.27,2.9-0.82,4.1c-0.59,1.26-1.39,2.29-2.38,3.08
		c-1.04,0.84-2.3,1.46-3.76,1.88c-1.46,0.45-3.15,0.67-5.06,0.67c-1.91,0-3.59-0.22-5.04-0.67c-1.49-0.42-2.76-1.04-3.8-1.88
		c-1.03-0.82-1.82-1.85-2.37-3.08c-0.56-1.16-0.84-2.52-0.84-4.1v-9.23v-1.09c-0.04-0.48-0.09-0.87-0.13-1.17
		c-0.09-0.38-0.22-0.77-0.39-1.19c-0.15-0.32-0.41-0.64-0.76-0.94v-0.28h6.61v0.28c-0.32,0.24-0.56,0.55-0.74,0.94
		c-0.2,0.48-0.33,0.88-0.41,1.19c-0.09,0.37-0.13,0.77-0.13,1.17c-0.02,0.28-0.03,0.65-0.03,1.09V128.27z"/>
        <path class="st0" d="M73.8,125.19h0.23c0.32,0.17,0.68,0.27,1.09,0.3c0.5,0.04,0.9,0.06,1.18,0.06h4.3c1.53,0,2.67-0.36,3.4-1.09
		c0.73-0.7,1.1-1.58,1.1-2.63c0-1.18-0.41-2.11-1.22-2.78c-0.82-0.65-1.87-0.99-3.15-0.99H69.97v13.19c0,0.6,0.01,1.13,0.03,1.58
		c0,0.75,0.05,1.42,0.13,2.02c0.08,0.75,0.18,1.38,0.33,1.89c0.16,0.6,0.4,1.02,0.71,1.28v0.28h-6.52v-0.28
		c0.33-0.28,0.57-0.72,0.74-1.31c0.19-0.69,0.32-1.35,0.41-1.99c0.04-0.45,0.09-1.12,0.13-2.02v-1.46v-11.59v-1.09
		c-0.04-0.48-0.09-0.87-0.13-1.17c-0.08-0.31-0.21-0.71-0.41-1.19c-0.15-0.35-0.4-0.66-0.74-0.94v-0.28h15.83
		c1.24,0,2.41,0.16,3.53,0.48c1.13,0.4,2.04,0.87,2.73,1.41c0.72,0.6,1.3,1.32,1.74,2.17c0.41,0.85,0.61,1.8,0.61,2.88
		c0,1.8-0.6,3.26-1.79,4.36c-1.18,1.09-2.8,1.77-4.85,2.02l-0.03,0.09l2.2,3.05c0.49,0.69,1,1.34,1.51,1.96
		c0.52,0.65,1.05,1.25,1.61,1.81c0.58,0.62,1.13,1.14,1.64,1.58c0.47,0.43,1.01,0.8,1.63,1.11v0.27c-0.82,0.36-1.7,0.54-2.63,0.54
		c-0.73,0-1.41-0.11-2.02-0.33c-0.64-0.19-1.21-0.47-1.71-0.86c-0.58-0.39-1.08-0.83-1.5-1.35c-0.47-0.51-0.93-1.09-1.38-1.74
		l-4.09-5.82h-5.93l-0.13-0.24L73.8,125.19z"/>
        <path class="st0" d="M109.76,114.55c1.86,0,3.71,0.28,5.56,0.85c1.77,0.55,3.32,1.34,4.65,2.36c1.35,1.08,2.41,2.36,3.19,3.82
		c0.79,1.53,1.18,3.22,1.18,5.07c0,1.84-0.4,3.52-1.18,5.05c-0.79,1.48-1.85,2.74-3.19,3.78c-1.3,1.03-2.85,1.83-4.65,2.39
		c-1.84,0.56-3.69,0.85-5.56,0.85c-1.89,0-3.73-0.28-5.52-0.85c-1.8-0.56-3.33-1.36-4.6-2.39c-1.38-1.06-2.45-2.33-3.2-3.78
		c-0.81-1.51-1.22-3.2-1.22-5.05c0-1.87,0.41-3.55,1.22-5.07c0.75-1.45,1.81-2.72,3.2-3.82c1.29-1.02,2.83-1.81,4.6-2.36
		C106.03,114.83,107.87,114.55,109.76,114.55 M109.76,117.7c-1.45,0-2.78,0.19-4.01,0.58c-1.26,0.43-2.36,1.01-3.29,1.74
		c-0.94,0.75-1.7,1.69-2.28,2.82c-0.57,1.11-0.86,2.39-0.86,3.82c0,1.42,0.29,2.69,0.86,3.8c0.58,1.15,1.34,2.08,2.28,2.79
		c0.93,0.76,2.02,1.34,3.29,1.74c1.2,0.41,2.54,0.61,4.01,0.61c1.46,0,2.8-0.2,4.04-0.61c1.27-0.4,2.37-0.98,3.3-1.74
		c0.92-0.72,1.67-1.65,2.25-2.79c0.56-1.1,0.84-2.36,0.84-3.8c0-1.45-0.28-2.72-0.84-3.82c-0.57-1.11-1.32-2.05-2.25-2.82
		c-0.92-0.73-2.02-1.31-3.3-1.74C112.54,117.89,111.2,117.7,109.76,117.7"/>
        <path class="st0" d="M165.65,125.09v-5.44v-1.09c-0.05-0.49-0.1-0.88-0.17-1.17c-0.08-0.31-0.21-0.71-0.41-1.19
		c-0.17-0.36-0.42-0.67-0.77-0.94v-0.28h6.62v0.28c-0.34,0.28-0.59,0.59-0.74,0.94c-0.18,0.45-0.31,0.84-0.36,1.19
		c-0.09,0.37-0.13,0.77-0.13,1.17c-0.02,0.28-0.03,0.65-0.03,1.09v11.59c0,0.54,0.01,1.03,0.03,1.46c0,0.72,0.05,1.39,0.13,2.02
		c0.07,0.66,0.18,1.32,0.36,1.99c0.16,0.6,0.41,1.03,0.74,1.32v0.28h-6.62v-0.28c0.35-0.27,0.61-0.71,0.77-1.32
		c0.18-0.69,0.32-1.35,0.41-1.99c0.07-0.46,0.12-1.13,0.17-2.02v-1.46v-2.97h-16.09v2.97c0,0.54,0.01,1.03,0.03,1.46
		c0,0.72,0.04,1.39,0.13,2.02c0.09,0.64,0.22,1.3,0.41,1.99c0.16,0.63,0.41,1.06,0.74,1.32v0.28h-6.64v-0.28
		c0.35-0.27,0.61-0.71,0.77-1.32c0.19-0.69,0.32-1.35,0.41-1.99c0.06-0.46,0.12-1.13,0.16-2.02v-1.46v-11.59v-1.09
		c-0.05-0.49-0.1-0.88-0.16-1.17c-0.08-0.31-0.21-0.71-0.41-1.19c-0.16-0.36-0.42-0.67-0.77-0.94v-0.28h6.64v0.28
		c-0.32,0.24-0.57,0.55-0.74,0.94c-0.2,0.48-0.34,0.88-0.41,1.19c-0.09,0.37-0.13,0.77-0.13,1.17c-0.02,0.28-0.03,0.65-0.03,1.09
		v5.44H165.65z"/>
        <path class="st0" d="M192.26,114.55c1.86,0,3.71,0.28,5.55,0.85c1.77,0.55,3.32,1.34,4.65,2.36c1.35,1.08,2.41,2.36,3.19,3.82
		c0.79,1.53,1.18,3.22,1.18,5.07c0,1.84-0.4,3.52-1.18,5.05c-0.79,1.48-1.85,2.74-3.19,3.78c-1.3,1.03-2.85,1.83-4.65,2.39
		c-1.84,0.56-3.69,0.85-5.55,0.85c-1.89,0-3.73-0.28-5.52-0.85c-1.8-0.56-3.33-1.36-4.6-2.39c-1.38-1.06-2.45-2.33-3.2-3.78
		c-0.81-1.51-1.22-3.2-1.22-5.05c0-1.87,0.4-3.55,1.22-5.07c0.75-1.45,1.81-2.72,3.2-3.82c1.29-1.02,2.83-1.81,4.6-2.36
		C188.53,114.83,190.37,114.55,192.26,114.55 M192.26,117.7c-1.45,0-2.78,0.19-4.01,0.58c-1.26,0.43-2.35,1.01-3.28,1.74
		c-0.94,0.75-1.7,1.69-2.29,2.82c-0.57,1.11-0.85,2.39-0.85,3.82c0,1.42,0.29,2.69,0.85,3.8c0.58,1.15,1.34,2.08,2.29,2.79
		c0.93,0.76,2.02,1.34,3.28,1.74c1.21,0.41,2.54,0.61,4.01,0.61c1.46,0,2.8-0.2,4.04-0.61c1.27-0.4,2.37-0.98,3.3-1.74
		c0.92-0.72,1.67-1.65,2.25-2.79c0.56-1.1,0.84-2.36,0.84-3.8c0-1.45-0.28-2.72-0.84-3.82c-0.57-1.11-1.32-2.05-2.25-2.82
		c-0.92-0.73-2.02-1.31-3.3-1.74C195.04,117.89,193.69,117.7,192.26,117.7"/>
        <path class="st0" d="M212.14,114.66h0.34l2.68,0.31h16.86l2.69-0.31l0.25,0.16l-2.83,4.62h-0.31c-0.18-0.45-0.51-0.79-1-1.03
		c-0.54-0.23-1.27-0.35-2.18-0.35h-4.78v13.19c0,0.54,0.01,1.03,0.03,1.46c0,0.72,0.04,1.39,0.13,2.02c0.1,0.72,0.24,1.38,0.44,1.99
		c0.16,0.61,0.42,1.04,0.77,1.32v0.28h-6.8v-0.28c0.35-0.23,0.63-0.67,0.84-1.32c0.18-0.69,0.32-1.35,0.41-1.99
		c0.07-0.46,0.12-1.13,0.17-2.02v-1.46v-13.19h-4.01c-1.02,0-2.07,0.12-3.16,0.35c-1.01,0.24-1.88,0.58-2.63,1.03l-0.2-0.17
		L212.14,114.66z"/>
        <path class="st0" d="M260.5,138.29h-20.64v-0.28c0.31-0.26,0.54-0.7,0.71-1.31c0.14-0.51,0.27-1.17,0.38-1.99
		c0.04-0.45,0.09-1.12,0.13-2.02v-1.46v-11.59v-1.09c-0.04-0.48-0.09-0.87-0.13-1.17c-0.1-0.44-0.22-0.84-0.38-1.19
		c-0.16-0.36-0.4-0.68-0.71-0.94v-0.28h20.64l1.38,4.39l-0.28,0.16c-0.42-0.29-0.92-0.53-1.51-0.71c-0.94-0.23-1.63-0.38-2.05-0.45
		c-1-0.13-1.8-0.21-2.42-0.25c-1.12-0.04-1.97-0.06-2.56-0.06h-8v7.07h15.1l0.13,0.26l-2.42,3.71h-0.35
		c-0.26-0.18-0.56-0.32-0.9-0.44c-0.6-0.15-1.02-0.24-1.25-0.3c-0.65-0.08-1.13-0.13-1.45-0.16c-0.34-0.02-0.83-0.03-1.48-0.03h-7.4
		v7.04H251c0.37,0,1.25-0.02,2.63-0.06c0.66-0.02,1.76-0.09,3.3-0.22c1.1-0.09,2.19-0.24,3.29-0.42c1.01-0.14,1.93-0.37,2.76-0.67
		l0.21,0.17L260.5,138.29z"/>
        <path class="st0" d="M288.36,138.29h-19.87v-0.28c0.31-0.26,0.54-0.7,0.71-1.31c0.14-0.51,0.27-1.17,0.38-1.99
		c0.04-0.45,0.09-1.12,0.13-2.02v-1.46v-11.59v-1.09c-0.04-0.48-0.09-0.87-0.13-1.17c-0.1-0.44-0.22-0.84-0.38-1.19
		c-0.16-0.36-0.4-0.68-0.71-0.94v-0.28h6.54v0.28c-0.37,0.28-0.64,0.59-0.79,0.94c-0.18,0.42-0.31,0.81-0.39,1.19
		c-0.09,0.37-0.13,0.76-0.13,1.17c-0.02,0.28-0.03,0.65-0.03,1.09v15.56h3.9c0.43,0,0.83-0.01,1.21-0.03c0.83,0,1.51-0.01,2.02-0.03
		c1.14-0.04,1.98-0.08,2.52-0.13c0.66-0.02,1.58-0.09,2.76-0.22c0.76-0.07,1.62-0.2,2.6-0.39c0.76-0.15,1.47-0.34,2.15-0.58
		l0.16,0.17L288.36,138.29z"/>
        <polygon class="st0" points="88.07,150.54 88.07,163.56 86.75,163.56 86.75,153.14 81.63,161.91 80.98,161.91 75.86,153.2
		75.86,163.56 74.54,163.56 74.54,150.54 75.67,150.54 81.33,160.2 86.93,150.54 	"/>
        <path class="st0" d="M100.95,160.09h-7.26l-1.56,3.48h-1.43l5.96-13.03h1.36l5.96,13.03h-1.45L100.95,160.09z M100.44,158.97
		l-3.13-7l-3.13,7H100.44z"/>
        <polygon class="st0" points="117.47,150.54 117.47,163.56 116.34,163.56 107.96,153 107.96,163.56 106.59,163.56 106.59,150.54
		107.72,150.54 116.12,161.11 116.12,150.54 	"/>
        <path class="st0" d="M130.35,160.09h-7.26l-1.56,3.48h-1.43l5.95-13.03h1.36l5.95,13.03h-1.45L130.35,160.09z M129.85,158.97
		l-3.13-7l-3.13,7H129.85z"/>
        <path class="st0" d="M144.98,157.05h1.32v4.97c-0.61,0.53-1.33,0.94-2.16,1.23c-0.83,0.28-1.71,0.43-2.62,0.43
		c-1.3,0-2.48-0.28-3.52-0.86c-1.04-0.57-1.86-1.36-2.46-2.37c-0.59-1.01-0.89-2.14-0.89-3.4c0-1.25,0.3-2.38,0.89-3.4
		c0.59-1.01,1.41-1.8,2.46-2.37c1.04-0.57,2.22-0.85,3.54-0.85c0.99,0,1.91,0.16,2.74,0.47c0.83,0.32,1.53,0.79,2.1,1.41l-0.86,0.87
		c-1.03-1.02-2.34-1.53-3.93-1.53c-1.05,0-2.01,0.23-2.86,0.7c-0.85,0.46-1.52,1.11-2,1.93c-0.48,0.82-0.73,1.74-0.73,2.76
		c0,1.02,0.24,1.94,0.73,2.75c0.48,0.82,1.15,1.46,1.99,1.94c0.84,0.47,1.79,0.71,2.85,0.71c1.34,0,2.47-0.33,3.4-1V157.05z"/>
        <polygon class="st0" points="159.87,162.37 159.87,163.56 150.65,163.56 150.65,150.54 159.59,150.54 159.59,151.73 152.03,151.73
		152.03,156.36 158.77,156.36 158.77,157.53 152.03,157.53 152.03,162.37 	"/>
        <polygon class="st0" points="177.1,150.54 177.1,163.56 175.78,163.56 175.78,153.14 170.66,161.91 170.01,161.91 164.89,153.2
		164.89,163.56 163.57,163.56 163.57,150.54 164.7,150.54 170.36,160.2 175.96,150.54 	"/>
        <polygon class="st0" points="191.02,162.37 191.02,163.56 181.81,163.56 181.81,150.54 190.74,150.54 190.74,151.73 183.19,151.73
		183.19,156.36 189.92,156.36 189.92,157.53 183.19,157.53 183.19,162.37 	"/>
        <polygon class="st0" points="205.61,150.54 205.61,163.56 204.47,163.56 196.1,153 196.1,163.56 194.72,163.56 194.72,150.54
		195.86,150.54 204.25,161.11 204.25,150.54 	"/>
        <polygon class="st0" points="212.85,151.73 208.27,151.73 208.27,150.54 218.81,150.54 218.81,151.73 214.23,151.73 214.23,163.56
		212.85,163.56 	"/>
</g>
</svg>
