<?xml version="1.0" encoding="utf-8"?>
<!-- Generator: Adobe Illustrator 23.0.0, SVG Export Plug-In . SVG Version: 6.00 Build 0)  -->
<svg version="1.1" id="Layer_1" xmlns="http://www.w3.org/2000/svg" xmlns:xlink="http://www.w3.org/1999/xlink" x="0px" y="0px"
	 viewBox="0 0 293.9 170.1" style="enable-background:new 0 0 293.9 170.1;" xml:space="preserve">
<style type="text/css">
	.st0{fill:#FFFFFF;}
	.st1{fill:#046263;}
</style>
<g>
	<path class="st0" d="M-276.4,79.1c-27,41.4-63.4,53.5-83.6,56.2c-0.5,0.1,0.9-0.1,0.5-0.1c32.5-5.7,50.8-23.9,79.9-62.1
		c0,0-3.9-9.9-18.5-19.8c0,0-5.6,54.9-49.3,76.6c39.6-23.9,42.5-80.6,42.5-80.6s-6.9-6.3-24-8.2c19.3,83.8-42.3,96.5-42.3,96.5
		c54.3-2.3,95.5-13.5,95.5-13.5s0.8,4.5-4,13.5c7.5-7,9.6-21,9.6-21c-23,8.5-48.3,12.9-75.7,17.1c31.4-6,62.3-15.7,76.3-24.2
		C-268.7,93-276.4,79.1-276.4,79.1"/>
	<polygon class="st0" points="-340.2,41.1 -338.9,45.8 -334.1,46 -338.2,48.7 -336.9,53.4 -340.7,50.3 -344.7,53 -343,48.4 
		-346.8,45.4 -341.9,45.6 	"/>
	<polygon class="st0" points="-336.4,66.5 -335.2,70.7 -330.8,71 -334.5,73.4 -333.3,77.7 -336.8,74.9 -340.5,77.3 -338.9,73.2 
		-342.4,70.4 -337.9,70.6 	"/>
	<polygon class="st0" points="-338.8,90.8 -337.8,94.6 -333.8,94.8 -337.1,97 -336.1,100.8 -339.2,98.3 -342.5,100.5 -341.1,96.8 
		-344.2,94.3 -340.2,94.5 	"/>
	<polygon class="st0" points="-351.6,109.2 -350.7,112.5 -347.2,112.7 -350.1,114.6 -349.2,117.9 -351.9,115.8 -354.8,117.7 
		-353.6,114.4 -356.3,112.2 -352.8,112.4 	"/>
	<polygon class="st0" points="-368.6,123.1 -367.8,125.9 -364.8,126 -367.3,127.6 -366.5,130.5 -368.8,128.6 -371.3,130.2 
		-370.2,127.5 -372.5,125.7 -369.6,125.8 	"/>
	<path class="st0" d="M-442.9,175.9h-20.6v-0.3c0.3-0.3,0.5-0.7,0.7-1.3c0.1-0.5,0.3-1.2,0.4-2c0-0.4,0.1-1.1,0.1-2v-1.5v-11.6v-1.1
		c0-0.5-0.1-0.9-0.1-1.2c-0.1-0.4-0.2-0.8-0.4-1.2c-0.2-0.4-0.4-0.7-0.7-0.9v-0.3h20.6l1.4,4.4l-0.3,0.2c-0.4-0.3-0.9-0.5-1.5-0.7
		c-0.9-0.2-1.6-0.4-2-0.4c-1-0.1-1.8-0.2-2.4-0.3c-1.1,0-2-0.1-2.6-0.1h-8v7.1h15.1l0.1,0.3l-2.4,3.7h-0.4c-0.3-0.2-0.6-0.3-0.9-0.4
		c-0.6-0.1-1-0.2-1.3-0.3c-0.6-0.1-1.1-0.1-1.4-0.2c-0.3,0-0.8,0-1.5,0h-7.4v7h5.9c0.4,0,1.3,0,2.6-0.1c0.7,0,1.8-0.1,3.3-0.2
		c1.1-0.1,2.2-0.2,3.3-0.4c1-0.1,1.9-0.4,2.8-0.7l0.2,0.2L-442.9,175.9z"/>
	<path class="st0" d="M-430.2,165.8c0,1,0.1,1.9,0.4,2.9c0.2,0.9,0.6,1.7,1.3,2.3c0.6,0.7,1.4,1.2,2.5,1.5c1.1,0.4,2.3,0.6,3.9,0.6
		c1.6,0,2.9-0.2,3.9-0.6c1-0.4,1.8-0.9,2.5-1.5c0.6-0.6,1.1-1.4,1.3-2.3c0.3-0.9,0.4-1.9,0.4-2.9v-8.6v-1.1c0-0.5-0.1-0.9-0.2-1.2
		c-0.1-0.4-0.2-0.8-0.4-1.2c-0.2-0.4-0.4-0.7-0.8-0.9v-0.3h6.6v0.3c-0.3,0.3-0.6,0.6-0.7,0.9c-0.2,0.4-0.3,0.8-0.4,1.2
		c-0.1,0.4-0.1,0.8-0.1,1.2c0,0.3,0,0.6,0,1.1v9.2c0,1.5-0.3,2.9-0.8,4.1c-0.6,1.3-1.4,2.3-2.4,3.1c-1,0.8-2.3,1.5-3.8,1.9
		c-1.5,0.4-3.1,0.7-5.1,0.7s-3.6-0.2-5-0.7c-1.5-0.4-2.8-1-3.8-1.9c-1-0.8-1.8-1.9-2.4-3.1c-0.6-1.2-0.8-2.5-0.8-4.1v-9.2v-1.1
		c0-0.5-0.1-0.9-0.1-1.2c-0.1-0.4-0.2-0.8-0.4-1.2c-0.1-0.3-0.4-0.6-0.8-0.9v-0.3h6.6v0.3c-0.3,0.2-0.6,0.6-0.7,0.9
		c-0.2,0.5-0.3,0.9-0.4,1.2c-0.1,0.4-0.1,0.8-0.1,1.2c0,0.3,0,0.7,0,1.1L-430.2,165.8L-430.2,165.8z"/>
	<path class="st0" d="M-393.1,162.8h0.2c0.3,0.2,0.7,0.3,1.1,0.3c0.5,0,0.9,0.1,1.2,0.1h4.3c1.5,0,2.7-0.4,3.4-1.1
		c0.7-0.7,1.1-1.6,1.1-2.6c0-1.2-0.4-2.1-1.2-2.8c-0.8-0.7-1.9-1-3.1-1h-10.8v13.2c0,0.6,0,1.1,0,1.6c0,0.8,0,1.4,0.1,2
		c0.1,0.8,0.2,1.4,0.3,1.9c0.2,0.6,0.4,1,0.7,1.3v0.3h-6.5v-0.3c0.3-0.3,0.6-0.7,0.7-1.3c0.2-0.7,0.3-1.4,0.4-2c0-0.4,0.1-1.1,0.1-2
		v-1.5v-11.6v-1.1c0-0.5-0.1-0.9-0.1-1.2c-0.1-0.3-0.2-0.7-0.4-1.2c-0.1-0.3-0.4-0.7-0.7-0.9v-0.3h15.8c1.2,0,2.4,0.2,3.5,0.5
		c1.1,0.4,2,0.9,2.7,1.4c0.7,0.6,1.3,1.3,1.7,2.2c0.4,0.8,0.6,1.8,0.6,2.9c0,1.8-0.6,3.3-1.8,4.4c-1.2,1.1-2.8,1.8-4.8,2l0,0.1
		l2.2,3.1c0.5,0.7,1,1.3,1.5,2c0.5,0.6,1,1.3,1.6,1.8c0.6,0.6,1.1,1.1,1.6,1.6c0.5,0.4,1,0.8,1.6,1.1v0.3c-0.8,0.4-1.7,0.5-2.6,0.5
		c-0.7,0-1.4-0.1-2-0.3c-0.6-0.2-1.2-0.5-1.7-0.9c-0.6-0.4-1.1-0.8-1.5-1.4c-0.5-0.5-0.9-1.1-1.4-1.7l-4.1-5.8h-5.9l-0.1-0.2
		L-393.1,162.8z"/>
	<path class="st0" d="M-357.1,152.1c1.9,0,3.7,0.3,5.6,0.9c1.8,0.6,3.3,1.3,4.6,2.4c1.4,1.1,2.4,2.4,3.2,3.8
		c0.8,1.5,1.2,3.2,1.2,5.1c0,1.8-0.4,3.5-1.2,5c-0.8,1.5-1.9,2.7-3.2,3.8c-1.3,1-2.9,1.8-4.6,2.4c-1.8,0.6-3.7,0.9-5.6,0.9
		c-1.9,0-3.7-0.3-5.5-0.9c-1.8-0.6-3.3-1.4-4.6-2.4c-1.4-1.1-2.5-2.3-3.2-3.8c-0.8-1.5-1.2-3.2-1.2-5.1c0-1.9,0.4-3.6,1.2-5.1
		c0.8-1.4,1.8-2.7,3.2-3.8c1.3-1,2.8-1.8,4.6-2.4C-360.8,152.4-359,152.1-357.1,152.1 M-357.1,155.3c-1.5,0-2.8,0.2-4,0.6
		c-1.3,0.4-2.4,1-3.3,1.7c-0.9,0.8-1.7,1.7-2.3,2.8c-0.6,1.1-0.9,2.4-0.9,3.8c0,1.4,0.3,2.7,0.9,3.8c0.6,1.1,1.3,2.1,2.3,2.8
		c0.9,0.8,2,1.3,3.3,1.7c1.2,0.4,2.5,0.6,4,0.6c1.5,0,2.8-0.2,4-0.6c1.3-0.4,2.4-1,3.3-1.7c0.9-0.7,1.7-1.6,2.3-2.8
		c0.6-1.1,0.8-2.4,0.8-3.8c0-1.4-0.3-2.7-0.8-3.8c-0.6-1.1-1.3-2.1-2.3-2.8c-0.9-0.7-2-1.3-3.3-1.7
		C-354.3,155.5-355.7,155.3-357.1,155.3"/>
	<path class="st0" d="M-301.2,162.7v-5.4v-1.1c-0.1-0.5-0.1-0.9-0.2-1.2c-0.1-0.3-0.2-0.7-0.4-1.2c-0.2-0.4-0.4-0.7-0.8-0.9v-0.3
		h6.6v0.3c-0.3,0.3-0.6,0.6-0.7,0.9c-0.2,0.4-0.3,0.8-0.4,1.2c-0.1,0.4-0.1,0.8-0.1,1.2c0,0.3,0,0.7,0,1.1v11.6c0,0.5,0,1,0,1.5
		c0,0.7,0,1.4,0.1,2c0.1,0.7,0.2,1.3,0.4,2c0.2,0.6,0.4,1,0.7,1.3v0.3h-6.6v-0.3c0.4-0.3,0.6-0.7,0.8-1.3c0.2-0.7,0.3-1.4,0.4-2
		c0.1-0.5,0.1-1.1,0.2-2v-1.5v-3h-16.1v3c0,0.5,0,1,0,1.5c0,0.7,0,1.4,0.1,2c0.1,0.6,0.2,1.3,0.4,2c0.2,0.6,0.4,1.1,0.7,1.3v0.3
		h-6.6v-0.3c0.4-0.3,0.6-0.7,0.8-1.3c0.2-0.7,0.3-1.4,0.4-2c0.1-0.5,0.1-1.1,0.2-2v-1.5v-11.6v-1.1c0-0.5-0.1-0.9-0.2-1.2
		c-0.1-0.3-0.2-0.7-0.4-1.2c-0.2-0.4-0.4-0.7-0.8-0.9v-0.3h6.6v0.3c-0.3,0.2-0.6,0.6-0.7,0.9c-0.2,0.5-0.3,0.9-0.4,1.2
		c-0.1,0.4-0.1,0.8-0.1,1.2c0,0.3,0,0.7,0,1.1v5.4H-301.2z"/>
	<path class="st0" d="M-274.6,152.1c1.9,0,3.7,0.3,5.6,0.9c1.8,0.6,3.3,1.3,4.6,2.4c1.4,1.1,2.4,2.4,3.2,3.8
		c0.8,1.5,1.2,3.2,1.2,5.1c0,1.8-0.4,3.5-1.2,5c-0.8,1.5-1.9,2.7-3.2,3.8c-1.3,1-2.9,1.8-4.6,2.4c-1.8,0.6-3.7,0.9-5.6,0.9
		c-1.9,0-3.7-0.3-5.5-0.9c-1.8-0.6-3.3-1.4-4.6-2.4c-1.4-1.1-2.5-2.3-3.2-3.8c-0.8-1.5-1.2-3.2-1.2-5.1c0-1.9,0.4-3.6,1.2-5.1
		c0.8-1.4,1.8-2.7,3.2-3.8c1.3-1,2.8-1.8,4.6-2.4C-278.3,152.4-276.5,152.1-274.6,152.1 M-274.6,155.3c-1.4,0-2.8,0.2-4,0.6
		c-1.3,0.4-2.4,1-3.3,1.7c-0.9,0.8-1.7,1.7-2.3,2.8c-0.6,1.1-0.9,2.4-0.9,3.8c0,1.4,0.3,2.7,0.9,3.8c0.6,1.1,1.3,2.1,2.3,2.8
		c0.9,0.8,2,1.3,3.3,1.7c1.2,0.4,2.5,0.6,4,0.6c1.5,0,2.8-0.2,4-0.6c1.3-0.4,2.4-1,3.3-1.7c0.9-0.7,1.7-1.6,2.3-2.8
		c0.6-1.1,0.8-2.4,0.8-3.8c0-1.4-0.3-2.7-0.8-3.8c-0.6-1.1-1.3-2.1-2.3-2.8c-0.9-0.7-2-1.3-3.3-1.7
		C-271.8,155.5-273.2,155.3-274.6,155.3"/>
	<path class="st0" d="M-254.7,152.2h0.3l2.7,0.3h16.9l2.7-0.3l0.3,0.2l-2.8,4.6h-0.3c-0.2-0.4-0.5-0.8-1-1c-0.5-0.2-1.3-0.4-2.2-0.4
		h-4.8v13.2c0,0.5,0,1,0,1.5c0,0.7,0,1.4,0.1,2c0.1,0.7,0.2,1.4,0.4,2c0.2,0.6,0.4,1,0.8,1.3v0.3h-6.8v-0.3c0.4-0.2,0.6-0.7,0.8-1.3
		c0.2-0.7,0.3-1.4,0.4-2c0.1-0.5,0.1-1.1,0.2-2v-1.5v-13.2h-4c-1,0-2.1,0.1-3.2,0.4c-1,0.2-1.9,0.6-2.6,1l-0.2-0.2L-254.7,152.2z"/>
	<path class="st0" d="M-206.4,175.9H-227v-0.3c0.3-0.3,0.5-0.7,0.7-1.3c0.1-0.5,0.3-1.2,0.4-2c0-0.4,0.1-1.1,0.1-2v-1.5v-11.6v-1.1
		c0-0.5-0.1-0.9-0.1-1.2c-0.1-0.4-0.2-0.8-0.4-1.2c-0.2-0.4-0.4-0.7-0.7-0.9v-0.3h20.6l1.4,4.4l-0.3,0.2c-0.4-0.3-0.9-0.5-1.5-0.7
		c-0.9-0.2-1.6-0.4-2-0.4c-1-0.1-1.8-0.2-2.4-0.3c-1.1,0-2-0.1-2.6-0.1h-8v7.1h15.1l0.1,0.3l-2.4,3.7h-0.4c-0.3-0.2-0.6-0.3-0.9-0.4
		c-0.6-0.1-1-0.2-1.3-0.3c-0.6-0.1-1.1-0.1-1.4-0.2c-0.3,0-0.8,0-1.5,0h-7.4v7h6c0.4,0,1.3,0,2.6-0.1c0.7,0,1.8-0.1,3.3-0.2
		c1.1-0.1,2.2-0.2,3.3-0.4c1-0.1,1.9-0.4,2.8-0.7l0.2,0.2L-206.4,175.9z"/>
	<path class="st0" d="M-178.5,175.9h-19.9v-0.3c0.3-0.3,0.5-0.7,0.7-1.3c0.1-0.5,0.3-1.2,0.4-2c0-0.4,0.1-1.1,0.1-2v-1.5v-11.6v-1.1
		c0-0.5-0.1-0.9-0.1-1.2c-0.1-0.4-0.2-0.8-0.4-1.2c-0.2-0.4-0.4-0.7-0.7-0.9v-0.3h6.5v0.3c-0.4,0.3-0.6,0.6-0.8,0.9
		c-0.2,0.4-0.3,0.8-0.4,1.2c-0.1,0.4-0.1,0.8-0.1,1.2c0,0.3,0,0.7,0,1.1v15.6h3.9c0.4,0,0.8,0,1.2,0c0.8,0,1.5,0,2,0
		c1.1,0,2-0.1,2.5-0.1c0.7,0,1.6-0.1,2.8-0.2c0.8-0.1,1.6-0.2,2.6-0.4c0.8-0.1,1.5-0.3,2.1-0.6l0.2,0.2L-178.5,175.9z"/>
	<polygon class="st0" points="-378.8,188.1 -378.8,201.1 -380.1,201.1 -380.1,190.7 -385.2,199.5 -385.9,199.5 -391,190.8 
		-391,201.1 -392.3,201.1 -392.3,188.1 -391.2,188.1 -385.5,197.8 -379.9,188.1 	"/>
	<path class="st0" d="M-365.9,197.7h-7.3l-1.6,3.5h-1.4l6-13h1.4l6,13h-1.4L-365.9,197.7z M-366.4,196.5l-3.1-7l-3.1,7H-366.4z"/>
	<polygon class="st0" points="-349.4,188.1 -349.4,201.1 -350.5,201.1 -358.9,190.6 -358.9,201.1 -360.3,201.1 -360.3,188.1 
		-359.2,188.1 -350.8,198.7 -350.8,188.1 	"/>
	<path class="st0" d="M-336.5,197.7h-7.3l-1.6,3.5h-1.4l5.9-13h1.4l5.9,13h-1.4L-336.5,197.7z M-337,196.5l-3.1-7l-3.1,7H-337z"/>
	<path class="st0" d="M-321.9,194.6h1.3v5c-0.6,0.5-1.3,0.9-2.2,1.2c-0.8,0.3-1.7,0.4-2.6,0.4c-1.3,0-2.5-0.3-3.5-0.9
		c-1-0.6-1.9-1.4-2.5-2.4c-0.6-1-0.9-2.1-0.9-3.4c0-1.3,0.3-2.4,0.9-3.4c0.6-1,1.4-1.8,2.5-2.4c1-0.6,2.2-0.9,3.5-0.9
		c1,0,1.9,0.2,2.7,0.5c0.8,0.3,1.5,0.8,2.1,1.4l-0.9,0.9c-1-1-2.3-1.5-3.9-1.5c-1,0-2,0.2-2.9,0.7c-0.9,0.5-1.5,1.1-2,1.9
		c-0.5,0.8-0.7,1.7-0.7,2.8c0,1,0.2,1.9,0.7,2.8c0.5,0.8,1.1,1.5,2,1.9c0.8,0.5,1.8,0.7,2.9,0.7c1.3,0,2.5-0.3,3.4-1L-321.9,194.6
		L-321.9,194.6z"/>
	<polygon class="st0" points="-307,199.9 -307,201.1 -316.2,201.1 -316.2,188.1 -307.3,188.1 -307.3,189.3 -314.8,189.3 
		-314.8,193.9 -308.1,193.9 -308.1,195.1 -314.8,195.1 -314.8,199.9 	"/>
	<polygon class="st0" points="-289.8,188.1 -289.8,201.1 -291.1,201.1 -291.1,190.7 -296.2,199.5 -296.9,199.5 -302,190.8 
		-302,201.1 -303.3,201.1 -303.3,188.1 -302.2,188.1 -296.5,197.8 -290.9,188.1 	"/>
	<polygon class="st0" points="-275.9,199.9 -275.9,201.1 -285.1,201.1 -285.1,188.1 -276.1,188.1 -276.1,189.3 -283.7,189.3 
		-283.7,193.9 -277,193.9 -277,195.1 -283.7,195.1 -283.7,199.9 	"/>
	<polygon class="st0" points="-261.3,188.1 -261.3,201.1 -262.4,201.1 -270.8,190.6 -270.8,201.1 -272.2,201.1 -272.2,188.1 
		-271,188.1 -262.6,198.7 -262.6,188.1 	"/>
	<polygon class="st0" points="-254,189.3 -258.6,189.3 -258.6,188.1 -248.1,188.1 -248.1,189.3 -252.6,189.3 -252.6,201.1 
		-254,201.1 	"/>
</g>
<path class="st1" d="M190.3,43c-27,41.4-63.4,53.5-83.6,56.2c-0.5,0.1,0.9-0.1,0.5-0.1c32.5-5.7,50.8-23.9,80-62.1
	c0,0-3.9-9.9-18.5-19.8c0,0-5.6,54.9-49.3,76.6c39.6-23.9,42.5-80.6,42.5-80.6s-6.9-6.3-24-8.2c19.3,83.7-42.3,96.5-42.3,96.5
	c54.3-2.3,95.5-13.5,95.5-13.5s0.7,4.5-4,13.5c7.5-7,9.6-21,9.6-21c-23,8.5-48.3,12.9-75.7,17.1c31.4-6,62.3-15.7,76.3-24.2
	C198,56.9,190.3,43,190.3,43"/>
<polygon class="st1" points="126.5,5 127.7,9.7 132.6,9.9 128.5,12.6 129.8,17.3 126,14.2 121.9,16.9 123.7,12.3 119.9,9.3 
	124.7,9.5 "/>
<polygon class="st1" points="130.3,30.4 131.5,34.7 135.9,34.9 132.2,37.3 133.4,41.6 129.9,38.8 126.2,41.2 127.8,37.1 124.3,34.3 
	128.7,34.5 "/>
<polygon class="st1" points="127.9,54.7 128.9,58.5 132.9,58.7 129.5,60.9 130.6,64.7 127.5,62.2 124.2,64.4 125.6,60.7 122.5,58.2 
	126.4,58.4 "/>
<polygon class="st1" points="115.1,73.1 116,76.4 119.4,76.6 116.5,78.5 117.4,81.9 114.7,79.7 111.8,81.6 113.1,78.3 110.4,76.1 
	113.8,76.3 "/>
<polygon class="st1" points="98.1,87 98.9,89.8 101.8,89.9 99.4,91.5 100.1,94.4 97.8,92.5 95.4,94.2 96.4,91.4 94.1,89.6 
	97.1,89.7 "/>
<path class="st1" d="M23.8,139.8H3.1v-0.3c0.3-0.3,0.5-0.7,0.7-1.3c0.1-0.5,0.3-1.2,0.4-2c0-0.4,0.1-1.1,0.1-2v-1.5v-11.6V120
	c0-0.5-0.1-0.9-0.1-1.2c-0.1-0.4-0.2-0.8-0.4-1.2c-0.2-0.4-0.4-0.7-0.7-0.9v-0.3h20.6l1.4,4.4l-0.3,0.2c-0.4-0.3-0.9-0.5-1.5-0.7
	c-0.9-0.2-1.6-0.4-2.1-0.5c-1-0.1-1.8-0.2-2.4-0.3c-1.1,0-2-0.1-2.6-0.1h-8v7.1h15.1l0.1,0.3l-2.4,3.7h-0.3
	c-0.3-0.2-0.6-0.3-0.9-0.4c-0.6-0.1-1-0.2-1.2-0.3c-0.6-0.1-1.1-0.1-1.4-0.2c-0.3,0-0.8,0-1.5,0H8.3v7h5.9c0.4,0,1.2,0,2.6-0.1
	c0.7,0,1.8-0.1,3.3-0.2c1.1-0.1,2.2-0.2,3.3-0.4c1-0.1,1.9-0.4,2.8-0.7l0.2,0.2L23.8,139.8z"/>
<path class="st1" d="M36.5,129.7c0,1,0.1,1.9,0.4,2.8c0.2,0.9,0.7,1.7,1.3,2.3c0.6,0.7,1.4,1.2,2.5,1.5c1.1,0.4,2.3,0.5,3.9,0.5
	c1.6,0,2.9-0.2,3.9-0.5c1-0.4,1.8-0.9,2.5-1.5c0.6-0.6,1.1-1.4,1.3-2.3c0.3-0.9,0.4-1.9,0.4-2.8v-8.6V120c0-0.5-0.1-0.9-0.2-1.2
	c-0.1-0.4-0.2-0.8-0.4-1.2c-0.2-0.4-0.4-0.7-0.8-0.9v-0.3h6.6v0.3c-0.3,0.3-0.6,0.6-0.7,0.9c-0.2,0.4-0.3,0.8-0.4,1.2
	c-0.1,0.4-0.1,0.8-0.1,1.2c0,0.3,0,0.6,0,1.1v9.2c0,1.5-0.3,2.9-0.8,4.1c-0.6,1.3-1.4,2.3-2.4,3.1c-1,0.8-2.3,1.5-3.8,1.9
	c-1.5,0.4-3.1,0.7-5.1,0.7c-1.9,0-3.6-0.2-5-0.7c-1.5-0.4-2.8-1-3.8-1.9c-1-0.8-1.8-1.9-2.4-3.1c-0.6-1.2-0.8-2.5-0.8-4.1v-9.2V120
	c0-0.5-0.1-0.9-0.1-1.2c-0.1-0.4-0.2-0.8-0.4-1.2c-0.2-0.3-0.4-0.6-0.8-0.9v-0.3h6.6v0.3c-0.3,0.2-0.6,0.6-0.7,0.9
	c-0.2,0.5-0.3,0.9-0.4,1.2c-0.1,0.4-0.1,0.8-0.1,1.2c0,0.3,0,0.6,0,1.1V129.7z"/>
<path class="st1" d="M73.6,126.7h0.2c0.3,0.2,0.7,0.3,1.1,0.3c0.5,0,0.9,0.1,1.2,0.1h4.3c1.5,0,2.7-0.4,3.4-1.1
	c0.7-0.7,1.1-1.6,1.1-2.6c0-1.2-0.4-2.1-1.2-2.8c-0.8-0.7-1.9-1-3.2-1H69.8v13.2c0,0.6,0,1.1,0,1.6c0,0.8,0,1.4,0.1,2
	c0.1,0.8,0.2,1.4,0.3,1.9c0.2,0.6,0.4,1,0.7,1.3v0.3h-6.5v-0.3c0.3-0.3,0.6-0.7,0.7-1.3c0.2-0.7,0.3-1.3,0.4-2c0-0.4,0.1-1.1,0.1-2
	v-1.5v-11.6V120c0-0.5-0.1-0.9-0.1-1.2c-0.1-0.3-0.2-0.7-0.4-1.2c-0.2-0.3-0.4-0.7-0.7-0.9v-0.3h15.8c1.2,0,2.4,0.2,3.5,0.5
	c1.1,0.4,2,0.9,2.7,1.4c0.7,0.6,1.3,1.3,1.7,2.2c0.4,0.8,0.6,1.8,0.6,2.9c0,1.8-0.6,3.3-1.8,4.4c-1.2,1.1-2.8,1.8-4.8,2l0,0.1
	l2.2,3.1c0.5,0.7,1,1.3,1.5,2c0.5,0.6,1.1,1.3,1.6,1.8c0.6,0.6,1.1,1.1,1.6,1.6c0.5,0.4,1,0.8,1.6,1.1v0.3c-0.8,0.4-1.7,0.5-2.6,0.5
	c-0.7,0-1.4-0.1-2-0.3c-0.6-0.2-1.2-0.5-1.7-0.9c-0.6-0.4-1.1-0.8-1.5-1.3c-0.5-0.5-0.9-1.1-1.4-1.7l-4.1-5.8h-5.9l-0.1-0.2
	L73.6,126.7z"/>
<path class="st1" d="M109.6,116c1.9,0,3.7,0.3,5.6,0.8c1.8,0.6,3.3,1.3,4.6,2.4c1.3,1.1,2.4,2.4,3.2,3.8c0.8,1.5,1.2,3.2,1.2,5.1
	c0,1.8-0.4,3.5-1.2,5.1c-0.8,1.5-1.9,2.7-3.2,3.8c-1.3,1-2.9,1.8-4.6,2.4c-1.8,0.6-3.7,0.8-5.6,0.8c-1.9,0-3.7-0.3-5.5-0.8
	c-1.8-0.6-3.3-1.4-4.6-2.4c-1.4-1.1-2.4-2.3-3.2-3.8c-0.8-1.5-1.2-3.2-1.2-5.1c0-1.9,0.4-3.6,1.2-5.1c0.7-1.4,1.8-2.7,3.2-3.8
	c1.3-1,2.8-1.8,4.6-2.4C105.8,116.3,107.7,116,109.6,116 M109.6,119.2c-1.4,0-2.8,0.2-4,0.6c-1.3,0.4-2.4,1-3.3,1.7
	c-0.9,0.8-1.7,1.7-2.3,2.8c-0.6,1.1-0.9,2.4-0.9,3.8c0,1.4,0.3,2.7,0.9,3.8c0.6,1.1,1.3,2.1,2.3,2.8c0.9,0.8,2,1.3,3.3,1.7
	c1.2,0.4,2.5,0.6,4,0.6c1.5,0,2.8-0.2,4-0.6c1.3-0.4,2.4-1,3.3-1.7c0.9-0.7,1.7-1.6,2.3-2.8c0.6-1.1,0.8-2.4,0.8-3.8
	c0-1.4-0.3-2.7-0.8-3.8c-0.6-1.1-1.3-2.1-2.3-2.8c-0.9-0.7-2-1.3-3.3-1.7C112.3,119.4,111,119.2,109.6,119.2"/>
<path class="st1" d="M165.5,126.6v-5.4V120c0-0.5-0.1-0.9-0.2-1.2c-0.1-0.3-0.2-0.7-0.4-1.2c-0.2-0.4-0.4-0.7-0.8-0.9v-0.3h6.6v0.3
	c-0.3,0.3-0.6,0.6-0.7,0.9c-0.2,0.4-0.3,0.8-0.4,1.2c-0.1,0.4-0.1,0.8-0.1,1.2c0,0.3,0,0.6,0,1.1v11.6c0,0.5,0,1,0,1.5
	c0,0.7,0,1.4,0.1,2c0.1,0.7,0.2,1.3,0.4,2c0.2,0.6,0.4,1,0.7,1.3v0.3h-6.6v-0.3c0.4-0.3,0.6-0.7,0.8-1.3c0.2-0.7,0.3-1.3,0.4-2
	c0.1-0.5,0.1-1.1,0.2-2v-1.5v-3h-16.1v3c0,0.5,0,1,0,1.5c0,0.7,0,1.4,0.1,2c0.1,0.6,0.2,1.3,0.4,2c0.2,0.6,0.4,1.1,0.7,1.3v0.3H144
	v-0.3c0.4-0.3,0.6-0.7,0.8-1.3c0.2-0.7,0.3-1.3,0.4-2c0.1-0.5,0.1-1.1,0.2-2v-1.5v-11.6V120c0-0.5-0.1-0.9-0.2-1.2
	c-0.1-0.3-0.2-0.7-0.4-1.2c-0.2-0.4-0.4-0.7-0.8-0.9v-0.3h6.6v0.3c-0.3,0.2-0.6,0.6-0.7,0.9c-0.2,0.5-0.3,0.9-0.4,1.2
	c-0.1,0.4-0.1,0.8-0.1,1.2c0,0.3,0,0.6,0,1.1v5.4H165.5z"/>
<path class="st1" d="M192.1,116c1.9,0,3.7,0.3,5.6,0.8c1.8,0.6,3.3,1.3,4.6,2.4c1.3,1.1,2.4,2.4,3.2,3.8c0.8,1.5,1.2,3.2,1.2,5.1
	c0,1.8-0.4,3.5-1.2,5.1c-0.8,1.5-1.9,2.7-3.2,3.8c-1.3,1-2.9,1.8-4.6,2.4c-1.8,0.6-3.7,0.8-5.6,0.8c-1.9,0-3.7-0.3-5.5-0.8
	c-1.8-0.6-3.3-1.4-4.6-2.4c-1.4-1.1-2.4-2.3-3.2-3.8c-0.8-1.5-1.2-3.2-1.2-5.1c0-1.9,0.4-3.6,1.2-5.1c0.7-1.4,1.8-2.7,3.2-3.8
	c1.3-1,2.8-1.8,4.6-2.4C188.3,116.3,190.2,116,192.1,116 M192.1,119.2c-1.4,0-2.8,0.2-4,0.6c-1.3,0.4-2.4,1-3.3,1.7
	c-0.9,0.8-1.7,1.7-2.3,2.8c-0.6,1.1-0.9,2.4-0.9,3.8c0,1.4,0.3,2.7,0.9,3.8c0.6,1.1,1.3,2.1,2.3,2.8c0.9,0.8,2,1.3,3.3,1.7
	c1.2,0.4,2.5,0.6,4,0.6c1.5,0,2.8-0.2,4-0.6c1.3-0.4,2.4-1,3.3-1.7c0.9-0.7,1.7-1.6,2.3-2.8c0.6-1.1,0.8-2.4,0.8-3.8
	c0-1.4-0.3-2.7-0.8-3.8c-0.6-1.1-1.3-2.1-2.3-2.8c-0.9-0.7-2-1.3-3.3-1.7C194.8,119.4,193.5,119.2,192.1,119.2"/>
<path class="st1" d="M211.9,116.1h0.3l2.7,0.3h16.9l2.7-0.3l0.2,0.2l-2.8,4.6h-0.3c-0.2-0.4-0.5-0.8-1-1c-0.5-0.2-1.3-0.3-2.2-0.3
	h-4.8v13.2c0,0.5,0,1,0,1.5c0,0.7,0,1.4,0.1,2c0.1,0.7,0.2,1.4,0.4,2c0.2,0.6,0.4,1,0.8,1.3v0.3h-6.8v-0.3c0.4-0.2,0.6-0.7,0.8-1.3
	c0.2-0.7,0.3-1.3,0.4-2c0.1-0.5,0.1-1.1,0.2-2v-1.5v-13.2h-4c-1,0-2.1,0.1-3.2,0.3c-1,0.2-1.9,0.6-2.6,1l-0.2-0.2L211.9,116.1z"/>
<path class="st1" d="M260.3,139.8h-20.6v-0.3c0.3-0.3,0.5-0.7,0.7-1.3c0.1-0.5,0.3-1.2,0.4-2c0-0.4,0.1-1.1,0.1-2v-1.5v-11.6V120
	c0-0.5-0.1-0.9-0.1-1.2c-0.1-0.4-0.2-0.8-0.4-1.2c-0.2-0.4-0.4-0.7-0.7-0.9v-0.3h20.6l1.4,4.4l-0.3,0.2c-0.4-0.3-0.9-0.5-1.5-0.7
	c-0.9-0.2-1.6-0.4-2.1-0.5c-1-0.1-1.8-0.2-2.4-0.3c-1.1,0-2-0.1-2.6-0.1h-8v7.1H260l0.1,0.3l-2.4,3.7h-0.3c-0.3-0.2-0.6-0.3-0.9-0.4
	c-0.6-0.1-1-0.2-1.2-0.3c-0.6-0.1-1.1-0.1-1.4-0.2c-0.3,0-0.8,0-1.5,0h-7.4v7h5.9c0.4,0,1.2,0,2.6-0.1c0.7,0,1.8-0.1,3.3-0.2
	c1.1-0.1,2.2-0.2,3.3-0.4c1-0.1,1.9-0.4,2.8-0.7l0.2,0.2L260.3,139.8z"/>
<path class="st1" d="M288.2,139.8h-19.9v-0.3c0.3-0.3,0.5-0.7,0.7-1.3c0.1-0.5,0.3-1.2,0.4-2c0-0.4,0.1-1.1,0.1-2v-1.5v-11.6V120
	c0-0.5-0.1-0.9-0.1-1.2c-0.1-0.4-0.2-0.8-0.4-1.2c-0.2-0.4-0.4-0.7-0.7-0.9v-0.3h6.5v0.3c-0.4,0.3-0.6,0.6-0.8,0.9
	c-0.2,0.4-0.3,0.8-0.4,1.2c-0.1,0.4-0.1,0.8-0.1,1.2c0,0.3,0,0.6,0,1.1v15.6h3.9c0.4,0,0.8,0,1.2,0c0.8,0,1.5,0,2,0
	c1.1,0,2-0.1,2.5-0.1c0.7,0,1.6-0.1,2.8-0.2c0.8-0.1,1.6-0.2,2.6-0.4c0.8-0.1,1.5-0.3,2.2-0.6l0.2,0.2L288.2,139.8z"/>
<polygon class="st1" points="87.9,152 87.9,165 86.5,165 86.5,154.6 81.4,163.4 80.8,163.4 75.7,154.7 75.7,165 74.3,165 74.3,152 
	75.5,152 81.1,161.7 86.7,152 "/>
<path class="st1" d="M100.7,161.6h-7.3l-1.6,3.5h-1.4l6-13h1.4l6,13h-1.5L100.7,161.6z M100.2,160.4l-3.1-7l-3.1,7H100.2z"/>
<polygon class="st1" points="117.3,152 117.3,165 116.1,165 107.8,154.5 107.8,165 106.4,165 106.4,152 107.5,152 115.9,162.6 
	115.9,152 "/>
<path class="st1" d="M130.2,161.6h-7.3l-1.6,3.5h-1.4l6-13h1.4l6,13h-1.5L130.2,161.6z M129.7,160.4l-3.1-7l-3.1,7H129.7z"/>
<path class="st1" d="M144.8,158.5h1.3v5c-0.6,0.5-1.3,0.9-2.2,1.2c-0.8,0.3-1.7,0.4-2.6,0.4c-1.3,0-2.5-0.3-3.5-0.9
	c-1-0.6-1.9-1.4-2.5-2.4c-0.6-1-0.9-2.1-0.9-3.4c0-1.3,0.3-2.4,0.9-3.4c0.6-1,1.4-1.8,2.5-2.4c1-0.6,2.2-0.9,3.5-0.9
	c1,0,1.9,0.2,2.7,0.5c0.8,0.3,1.5,0.8,2.1,1.4l-0.9,0.9c-1-1-2.3-1.5-3.9-1.5c-1.1,0-2,0.2-2.9,0.7c-0.8,0.5-1.5,1.1-2,1.9
	c-0.5,0.8-0.7,1.7-0.7,2.8c0,1,0.2,1.9,0.7,2.8c0.5,0.8,1.1,1.5,2,1.9c0.8,0.5,1.8,0.7,2.8,0.7c1.3,0,2.5-0.3,3.4-1V158.5z"/>
<polygon class="st1" points="159.7,163.9 159.7,165 150.5,165 150.5,152 159.4,152 159.4,153.2 151.8,153.2 151.8,157.8 
	158.6,157.8 158.6,159 151.8,159 151.8,163.9 "/>
<polygon class="st1" points="176.9,152 176.9,165 175.6,165 175.6,154.6 170.5,163.4 169.8,163.4 164.7,154.7 164.7,165 163.4,165 
	163.4,152 164.5,152 170.2,161.7 175.8,152 "/>
<polygon class="st1" points="190.8,163.9 190.8,165 181.6,165 181.6,152 190.5,152 190.5,153.2 183,153.2 183,157.8 189.7,157.8 
	189.7,159 183,159 183,163.9 "/>
<polygon class="st1" points="205.4,152 205.4,165 204.3,165 195.9,154.5 195.9,165 194.5,165 194.5,152 195.7,152 204.1,162.6 
	204.1,152 "/>
<polygon class="st1" points="212.7,153.2 208.1,153.2 208.1,152 218.6,152 218.6,153.2 214,153.2 214,165 212.7,165 "/>
</svg>
