<?xml version="1.0" encoding="utf-8"?>
<!-- Generator: Adobe Illustrator 23.0.0, SVG Export Plug-In . SVG Version: 6.00 Build 0)  -->
<svg version="1.1" id="Layer_1" xmlns="http://www.w3.org/2000/svg" xmlns:xlink="http://www.w3.org/1999/xlink" x="0px" y="0px"
	 viewBox="0 0 56.8 4.7" style="enable-background:new 0 0 56.8 4.7;" xml:space="preserve">
<style type="text/css">
	.st0{fill:url(#SVGID_1_);}
	.st1{fill:url(#SVGID_2_);}
	.st2{fill:url(#SVGID_3_);}
	.st3{fill:url(#SVGID_4_);}
	.st4{fill:url(#SVGID_5_);}
	.st5{fill:url(#SVGID_6_);}
	.st6{fill:url(#SVGID_7_);}
	.st7{fill:url(#SVGID_8_);}
	.st8{fill:url(#SVGID_9_);}
	.st9{fill:url(#SVGID_10_);}
	.st10{fill:url(#SVGID_11_);}
	.st11{fill:url(#SVGID_12_);}
	.st12{fill:url(#SVGID_13_);}
	.st13{fill:url(#SVGID_14_);}
	.st14{fill:url(#SVGID_15_);}
	.st15{fill:url(#SVGID_16_);}
	.st16{fill:url(#SVGID_17_);}
</style>
<g>
	<g>
		<g>
			<linearGradient id="SVGID_1_" gradientUnits="userSpaceOnUse" x1="11.7646" y1="9.9359" x2="46.8099" y2="-6.0089">
				<stop  offset="0" style="stop-color:#F4DFBC"/>
				<stop  offset="0.1507" style="stop-color:#F4DFBC"/>
				<stop  offset="0.3616" style="stop-color:#E5C4A0"/>
				<stop  offset="0.6129" style="stop-color:#D6AA85"/>
				<stop  offset="0.7204" style="stop-color:#A67B5E"/>
				<stop  offset="0.8387" style="stop-color:#D6AA85"/>
				<stop  offset="1" style="stop-color:#F4DFBC"/>
			</linearGradient>
			<path class="st0" d="M28.8,3.2C28.8,3.2,28.9,3.3,28.8,3.2C29,3.3,29,3.4,29.1,3.4c0.2,0.1,0.4,0.3,0.8,0.5
				c0.2,0.1,0.4,0.2,0.6,0.3c0.1,0,0.2,0.1,0.4,0.1c0.1,0,0.3,0.1,0.4,0.1c0.1,0,0.3,0.1,0.4,0.1c0.2,0,0.3,0,0.5,0c0,0,0.1,0,0.1,0
				c0,0,0.1,0,0.1,0c0,0,0.1,0,0.1,0c0,0,0.1,0,0.1,0c0.2,0,0.4,0,0.5-0.1c0.2,0,0.4-0.1,0.5-0.1c0.2-0.1,0.4-0.1,0.5-0.2
				c0.1-0.1,0.2-0.1,0.2-0.2c0.1-0.1,0.2-0.1,0.2-0.2c0.1-0.1,0.3-0.3,0.3-0.5c0.1-0.2,0.1-0.4,0.2-0.6c0,0,0-0.1,0-0.1
				c0,0,0-0.1,0-0.1l0,0c0,0,0,0,0,0c0,0,0-0.1,0-0.1c0-0.1,0-0.2-0.1-0.3c0-0.1-0.1-0.2-0.1-0.3C35.1,1.6,35,1.5,35,1.4
				c-0.1-0.1-0.2-0.2-0.2-0.2c-0.1-0.1-0.2-0.1-0.3-0.2c-0.2-0.1-0.4-0.2-0.7-0.3c-0.2-0.1-0.5-0.1-0.7-0.2c-0.2,0-0.5,0-0.8,0
				c-0.3,0-0.5,0.1-0.8,0.2c-0.5,0.2-1,0.4-1.5,0.7c-0.5,0.3-1,0.6-1.4,0.9c-0.1,0.1-0.2,0.1-0.4,0.2c-0.1,0.1-0.2,0.1-0.4,0.2
				c-0.2,0.1-0.5,0.3-0.7,0.4c-0.5,0.3-1,0.5-1.5,0.8C25.5,3.9,25.2,4,25,4.1c-0.3,0.1-0.5,0.2-0.8,0.2c-0.3,0-0.5,0.1-0.8,0.1
				c0,0-0.1,0-0.1,0c0,0-0.1,0-0.1,0l0,0l0,0l0,0c0,0-0.1,0-0.1,0l0,0c0,0,0,0,0,0c0,0-0.1,0-0.1,0c-0.1,0-0.1,0-0.2,0
				c-0.1,0-0.1,0-0.2-0.1l0,0c0,0,0,0,0,0c0,0-0.1,0-0.1,0c0,0-0.1,0-0.1,0c0,0-0.1,0-0.1,0c0,0-0.1,0-0.1,0l0,0l0,0c0,0,0,0,0,0
				c0,0-0.1,0-0.1-0.1c0,0,0,0,0,0l0,0c0,0,0,0-0.1-0.1c0,0,0,0-0.1-0.1l0,0c0,0,0,0,0,0c0,0,0,0-0.1-0.1c0,0,0-0.1-0.1-0.1l0,0
				c0,0,0,0,0,0c0,0,0-0.1,0-0.1c0,0,0-0.1,0-0.1l0,0c0,0,0,0,0,0c0,0,0-0.1,0-0.1c0,0,0-0.1,0-0.1l0,0c0,0,0,0,0,0c0,0,0-0.1,0-0.1
				c0,0,0-0.1,0-0.1l0,0c0,0,0,0,0,0c0,0,0-0.1,0-0.1c0,0,0-0.1,0-0.1c0,0,0-0.1,0-0.1c0,0,0-0.1,0-0.1c0,0,0-0.1,0-0.1l0,0l0,0l0,0
				c0,0,0-0.1,0-0.1c0.1-0.4,0.3-0.8,0.6-1.1c0.1-0.1,0.3-0.3,0.5-0.4c0,0,0.1-0.1,0.1-0.1c0,0,0.1,0,0.1-0.1c0.1,0,0.2-0.1,0.3-0.1
				c0.2-0.1,0.4-0.1,0.5-0.2c0,0,0.1,0,0.1,0c0,0,0.1,0,0.1,0c0,0,0.1,0,0.1,0c0,0,0.1,0,0.1,0c0,0,0.1,0,0.1,0c0,0,0,0,0.1,0
				c0,0,0,0,0.1,0c0,0,0.1,0,0.1,0l0,0l0,0c0,0,0,0,0.1,0c0,0,0,0,0.1,0l0,0l0,0c0,0,0.1,0,0.1,0c0,0,0.1,0,0.1,0c0,0,0.1,0,0.1,0
				c0.3,0.1,0.6,0.1,0.8,0.2c0.2,0.1,0.4,0.2,0.6,0.3c0.4,0.2,0.6,0.4,0.8,0.6c0.1,0.1,0.1,0.1,0.2,0.2c0,0,0.1,0.1,0.1,0.1
				s0,0-0.1-0.1c0,0-0.1-0.1-0.2-0.2c-0.2-0.1-0.4-0.3-0.8-0.6c-0.2-0.1-0.4-0.2-0.6-0.3c-0.2-0.1-0.5-0.2-0.8-0.2c0,0-0.1,0-0.1,0
				c0,0-0.1,0-0.1,0c0,0-0.1,0-0.1,0l0,0l0,0c0,0,0,0-0.1,0c0,0,0,0-0.1,0l0,0l0,0c0,0-0.1,0-0.1,0c0,0,0,0-0.1,0c0,0,0,0-0.1,0
				c0,0-0.1,0-0.1,0c0,0-0.1,0-0.1,0c0,0-0.1,0-0.1,0c0,0-0.1,0-0.1,0c0,0-0.1,0-0.1,0c-0.2,0-0.3,0.1-0.5,0.2
				c-0.3,0.1-0.7,0.4-0.9,0.6c0,0-0.1,0.1-0.1,0.1c0,0,0,0,0,0.1c0,0,0,0,0,0.1l0,0c0,0,0,0,0,0c0,0,0,0,0,0.1c0,0,0,0,0,0.1
				c0,0,0,0,0,0.1c0,0,0,0.1-0.1,0.1c0,0,0,0,0,0.1c0,0,0,0,0,0.1l0,0l0,0c0,0,0,0,0,0.1c0,0,0,0.1,0,0.1c0,0,0,0.1,0,0.1
				c0,0,0,0.1,0,0.1l0,0l0,0l0,0c0,0,0,0.1,0,0.1c0,0,0,0.1,0,0.1c0,0,0,0.1,0,0.1c0,0,0,0.1,0,0.1c0,0,0,0.1,0,0.1c0,0,0,0,0,0l0,0
				c0,0,0,0.1,0,0.1c0,0,0,0.1,0,0.1c0,0,0,0,0,0l0,0c0,0,0,0.1,0,0.1c0,0,0,0,0,0.1c0,0,0,0,0,0l0,0c0,0,0,0,0,0.1c0,0,0,0,0,0.1
				c0,0,0,0,0,0l0,0c0,0,0,0,0,0.1c0,0,0,0,0.1,0.1c0,0,0,0,0,0l0,0c0,0,0,0,0.1,0.1c0,0,0,0,0.1,0.1l0,0c0,0,0,0,0,0c0,0,0,0,0.1,0
				c0,0,0,0,0,0l0,0l0,0c0,0,0,0,0.1,0c0,0,0.1,0,0.1,0c0,0,0.1,0,0.1,0c0,0,0.1,0,0.1,0c0,0,0,0,0,0l0,0c0.1,0,0.1,0,0.2,0.1
				c0.1,0,0.1,0,0.2,0c0,0,0.1,0,0.1,0c0,0,0,0,0,0l0,0c0,0,0.1,0,0.1,0l0,0l0,0l0,0c0,0,0.1,0,0.1,0c0,0,0.1,0,0.1,0
				c0.2,0,0.5,0,0.7-0.1c0.2,0,0.5-0.1,0.7-0.2c0.2-0.1,0.5-0.2,0.7-0.3c0.5-0.2,1-0.5,1.4-0.7c0.2-0.1,0.5-0.3,0.7-0.4
				c0.1-0.1,0.2-0.1,0.4-0.2c0.1-0.1,0.2-0.1,0.4-0.2c0.5-0.3,1-0.6,1.5-0.9c0.5-0.3,1-0.5,1.5-0.7c0.3-0.1,0.5-0.1,0.8-0.2
				c0.3,0,0.5,0,0.8,0c0.3,0,0.5,0.1,0.8,0.2c0.2,0.1,0.5,0.2,0.7,0.3C34.7,0.9,34.8,1,34.9,1c0.1,0.1,0.2,0.2,0.3,0.3
				c0.1,0.1,0.2,0.2,0.2,0.3c0.1,0.1,0.1,0.2,0.1,0.3c0,0.1,0.1,0.2,0.1,0.4c0,0,0,0.1,0,0.1c0,0,0,0,0,0l0,0c0,0,0,0.1,0,0.1
				c0,0,0,0.1,0,0.1c0,0.2-0.1,0.5-0.2,0.7c-0.1,0.2-0.2,0.4-0.4,0.5c-0.1,0.1-0.2,0.1-0.2,0.2c-0.1,0.1-0.2,0.1-0.3,0.2
				c-0.2,0.1-0.4,0.2-0.6,0.2c-0.2,0.1-0.4,0.1-0.6,0.1c-0.2,0-0.4,0.1-0.6,0.1c0,0-0.1,0-0.1,0c0,0-0.1,0-0.1,0c0,0-0.1,0-0.1,0
				c0,0-0.1,0-0.1,0c-0.2,0-0.3,0-0.5,0c-0.2,0-0.3-0.1-0.5-0.1c-0.1,0-0.3-0.1-0.4-0.1c-0.1,0-0.3-0.1-0.4-0.1
				c-0.2-0.1-0.4-0.2-0.6-0.3c-0.4-0.2-0.6-0.4-0.8-0.5C29,3.4,29,3.3,28.8,3.2C28.9,3.3,28.8,3.2,28.8,3.2z"/>
		</g>
		<g>
			<linearGradient id="SVGID_2_" gradientUnits="userSpaceOnUse" x1="11.9485" y1="10.3401" x2="46.9937" y2="-5.6047">
				<stop  offset="0" style="stop-color:#F4DFBC"/>
				<stop  offset="0.1507" style="stop-color:#F4DFBC"/>
				<stop  offset="0.3616" style="stop-color:#E5C4A0"/>
				<stop  offset="0.6129" style="stop-color:#D6AA85"/>
				<stop  offset="0.7204" style="stop-color:#A67B5E"/>
				<stop  offset="0.8387" style="stop-color:#D6AA85"/>
				<stop  offset="1" style="stop-color:#F4DFBC"/>
			</linearGradient>
			<path class="st1" d="M31.6,1.5C31.6,1.5,31.6,1.5,31.6,1.5c-0.1,0-0.1,0-0.1,0c0,0-0.1,0-0.1,0c-0.2,0-0.4,0.1-0.6,0.2
				c-0.3,0.1-0.6,0.2-0.9,0.4c-0.3,0.2-0.7,0.4-1,0.6c-0.2,0.1-0.4,0.2-0.5,0.3c-0.1,0-0.2,0.1-0.3,0.1c-0.1,0-0.2,0.1-0.3,0.1
				c-0.3,0.2-0.6,0.3-0.9,0.5c0,0-0.1,0-0.1,0c0,0-0.1,0-0.1,0C26.6,4,26.5,4,26.5,4c-0.1,0-0.2,0.1-0.3,0.1C26.1,4.2,26,4.2,26,4.2
				s0.1,0,0.2-0.1c0.1,0,0.1-0.1,0.2-0.1c0,0,0.1-0.1,0.2-0.1c0,0,0.1,0,0.1-0.1c0,0,0.1,0,0.1-0.1c0.1-0.1,0.2-0.2,0.4-0.3
				c0.1,0,0.1-0.1,0.2-0.1c0.1,0,0.2-0.1,0.2-0.1c0.1,0,0.2-0.1,0.2-0.1c0.1,0,0.2-0.1,0.3-0.2c0.2-0.1,0.4-0.2,0.5-0.3
				C29,2.3,29.4,2.1,29.7,2c0.3-0.2,0.7-0.3,0.9-0.3c0.3-0.1,0.5-0.1,0.7-0.1c0,0,0.1,0,0.1,0C31.5,1.5,31.5,1.5,31.6,1.5
				C31.6,1.5,31.6,1.5,31.6,1.5z"/>
		</g>
		<g>
			<linearGradient id="SVGID_3_" gradientUnits="userSpaceOnUse" x1="11.4989" y1="9.3519" x2="46.5441" y2="-6.5929">
				<stop  offset="0" style="stop-color:#F4DFBC"/>
				<stop  offset="0.1507" style="stop-color:#F4DFBC"/>
				<stop  offset="0.3616" style="stop-color:#E5C4A0"/>
				<stop  offset="0.6129" style="stop-color:#D6AA85"/>
				<stop  offset="0.7204" style="stop-color:#A67B5E"/>
				<stop  offset="0.8387" style="stop-color:#D6AA85"/>
				<stop  offset="1" style="stop-color:#F4DFBC"/>
			</linearGradient>
			<path class="st2" d="M30.9,0.6C30.9,0.6,30.9,0.6,30.9,0.6c-0.1,0-0.1,0-0.1,0c0,0-0.1,0-0.1,0c-0.2,0-0.4,0.1-0.6,0.2
				c-0.3,0.1-0.6,0.2-0.9,0.4c-0.3,0.2-0.7,0.4-1,0.6c-0.2,0.1-0.4,0.2-0.5,0.3c-0.1,0-0.2,0.1-0.3,0.1c-0.1,0-0.2,0.1-0.3,0.1
				c-0.3,0.2-0.6,0.3-0.9,0.5c0,0-0.1,0-0.1,0c0,0-0.1,0-0.1,0c-0.1,0-0.1,0.1-0.2,0.1c-0.1,0-0.2,0.1-0.3,0.1
				c-0.1,0.1-0.2,0.1-0.2,0.1s0.1,0,0.2-0.1c0.1,0,0.1-0.1,0.2-0.1c0,0,0.1-0.1,0.2-0.1c0,0,0.1,0,0.1-0.1c0,0,0.1,0,0.1-0.1
				c0.1-0.1,0.2-0.2,0.4-0.3c0.1,0,0.1-0.1,0.2-0.1c0.1,0,0.2-0.1,0.2-0.1c0.1,0,0.2-0.1,0.2-0.1c0.1,0,0.2-0.1,0.3-0.2
				c0.2-0.1,0.4-0.2,0.5-0.3c0.4-0.2,0.7-0.4,1.1-0.6c0.3-0.2,0.7-0.3,0.9-0.3c0.3-0.1,0.5-0.1,0.7-0.1c0,0,0.1,0,0.1,0
				C30.8,0.6,30.8,0.6,30.9,0.6C30.9,0.6,30.9,0.6,30.9,0.6z"/>
		</g>
	</g>
	<g>
		<g>
			<g>
				<linearGradient id="SVGID_4_" gradientUnits="userSpaceOnUse" x1="16.5878" y1="20.5368" x2="51.6331" y2="4.592">
					<stop  offset="0" style="stop-color:#F4DFBC"/>
					<stop  offset="0.1507" style="stop-color:#F4DFBC"/>
					<stop  offset="0.3616" style="stop-color:#E5C4A0"/>
					<stop  offset="0.6129" style="stop-color:#D6AA85"/>
					<stop  offset="0.7204" style="stop-color:#A67B5E"/>
					<stop  offset="0.8387" style="stop-color:#D6AA85"/>
					<stop  offset="1" style="stop-color:#F4DFBC"/>
				</linearGradient>
				<path class="st3" d="M56.8,2.6c0,0-0.3-1.6-2.4,0C54.4,2.6,56.4,4.3,56.8,2.6z M56.3,2.6C56.3,2.7,56.3,2.7,56.3,2.6
					c-0.1,0.1-0.2,0-0.2,0C56.1,2.6,56.2,2.6,56.3,2.6C56.3,2.6,56.3,2.6,56.3,2.6z M54.9,2.7c0,0,0.1-0.5,1.1,0
					C56,2.6,55.1,3.1,54.9,2.7z"/>
			</g>
			<linearGradient id="SVGID_5_" gradientUnits="userSpaceOnUse" x1="16.3061" y1="19.9173" x2="51.3512" y2="3.9726">
				<stop  offset="0" style="stop-color:#F4DFBC"/>
				<stop  offset="0.1507" style="stop-color:#F4DFBC"/>
				<stop  offset="0.3616" style="stop-color:#E5C4A0"/>
				<stop  offset="0.6129" style="stop-color:#D6AA85"/>
				<stop  offset="0.7204" style="stop-color:#A67B5E"/>
				<stop  offset="0.8387" style="stop-color:#D6AA85"/>
				<stop  offset="1" style="stop-color:#F4DFBC"/>
			</linearGradient>
			<path class="st4" d="M54.2,2.9c-0.1,0-0.2-0.1-0.2-0.2l0,0c0-0.1,0.1-0.2,0.2-0.2l0,0c0.1,0,0.2,0.1,0.2,0.2l0,0
				C54.5,2.8,54.4,2.9,54.2,2.9L54.2,2.9z"/>
			<linearGradient id="SVGID_6_" gradientUnits="userSpaceOnUse" x1="16.0197" y1="19.2893" x2="51.0654" y2="3.3444">
				<stop  offset="0" style="stop-color:#F4DFBC"/>
				<stop  offset="0.1507" style="stop-color:#F4DFBC"/>
				<stop  offset="0.3616" style="stop-color:#E5C4A0"/>
				<stop  offset="0.6129" style="stop-color:#D6AA85"/>
				<stop  offset="0.7204" style="stop-color:#A67B5E"/>
				<stop  offset="0.8387" style="stop-color:#D6AA85"/>
				<stop  offset="1" style="stop-color:#F4DFBC"/>
			</linearGradient>
			<path class="st5" d="M52.6,2.9c-0.1,0-0.2-0.1-0.2-0.2l0,0c0-0.1,0.1-0.2,0.2-0.2l0,0c0.1,0,0.2,0.1,0.2,0.2l0,0
				C52.8,2.8,52.7,2.9,52.6,2.9L52.6,2.9z"/>
			<linearGradient id="SVGID_7_" gradientUnits="userSpaceOnUse" x1="16.1626" y1="19.6024" x2="51.208" y2="3.6576">
				<stop  offset="0" style="stop-color:#F4DFBC"/>
				<stop  offset="0.1507" style="stop-color:#F4DFBC"/>
				<stop  offset="0.3616" style="stop-color:#E5C4A0"/>
				<stop  offset="0.6129" style="stop-color:#D6AA85"/>
				<stop  offset="0.7204" style="stop-color:#A67B5E"/>
				<stop  offset="0.8387" style="stop-color:#D6AA85"/>
				<stop  offset="1" style="stop-color:#F4DFBC"/>
			</linearGradient>
			<path class="st6" d="M53.4,3.2c0,0,0.7-0.6,0.7-0.6c0,0-0.7-0.6-0.7-0.6c-0.1,0.2-0.7,0.6-0.7,0.6C52.6,2.7,53.3,3,53.4,3.2z"/>
			<g>
				<linearGradient id="SVGID_8_" gradientUnits="userSpaceOnUse" x1="12.6444" y1="11.8695" x2="47.6898" y2="-4.0754">
					<stop  offset="0" style="stop-color:#F4DFBC"/>
					<stop  offset="0.1507" style="stop-color:#F4DFBC"/>
					<stop  offset="0.3616" style="stop-color:#E5C4A0"/>
					<stop  offset="0.6129" style="stop-color:#D6AA85"/>
					<stop  offset="0.7204" style="stop-color:#A67B5E"/>
					<stop  offset="0.8387" style="stop-color:#D6AA85"/>
					<stop  offset="1" style="stop-color:#F4DFBC"/>
				</linearGradient>
				<path class="st7" d="M33.9,2.7c-1.4-1.1-1.6,0-1.6,0C32.6,3.7,33.9,2.7,33.9,2.7z M32.7,2.6C32.7,2.6,32.7,2.6,32.7,2.6
					c0.1,0.1,0,0.1,0,0.1C32.7,2.7,32.6,2.7,32.7,2.6C32.6,2.6,32.7,2.6,32.7,2.6z M32.8,2.7c0.6-0.3,0.7,0,0.7,0
					C33.4,3,32.8,2.7,32.8,2.7z"/>
			</g>
			<linearGradient id="SVGID_9_" gradientUnits="userSpaceOnUse" x1="12.8311" y1="12.2795" x2="47.8761" y2="-3.6651">
				<stop  offset="0" style="stop-color:#F4DFBC"/>
				<stop  offset="0.1507" style="stop-color:#F4DFBC"/>
				<stop  offset="0.3616" style="stop-color:#E5C4A0"/>
				<stop  offset="0.6129" style="stop-color:#D6AA85"/>
				<stop  offset="0.7204" style="stop-color:#A67B5E"/>
				<stop  offset="0.8387" style="stop-color:#D6AA85"/>
				<stop  offset="1" style="stop-color:#F4DFBC"/>
			</linearGradient>
			<path class="st8" d="M34,2.8c0.1,0,0.1-0.1,0.1-0.1l0,0c0-0.1-0.1-0.1-0.1-0.1l0,0c-0.1,0-0.1,0.1-0.1,0.1l0,0
				C33.8,2.7,33.9,2.8,34,2.8L34,2.8z"/>
		</g>
		<linearGradient id="SVGID_10_" gradientUnits="userSpaceOnUse" x1="14.4385" y1="15.8131" x2="49.4837" y2="-0.1317">
			<stop  offset="0" style="stop-color:#F4DFBC"/>
			<stop  offset="0.1507" style="stop-color:#F4DFBC"/>
			<stop  offset="0.3616" style="stop-color:#E5C4A0"/>
			<stop  offset="0.6129" style="stop-color:#D6AA85"/>
			<stop  offset="0.7204" style="stop-color:#A67B5E"/>
			<stop  offset="0.8387" style="stop-color:#D6AA85"/>
			<stop  offset="1" style="stop-color:#F4DFBC"/>
		</linearGradient>
		<rect x="34.1" y="2.6" class="st9" width="18.4" height="0.2"/>
	</g>
	<g>
		<linearGradient id="SVGID_11_" gradientUnits="userSpaceOnUse" x1="7.1508" y1="-0.205" x2="42.1961" y2="-16.1498">
			<stop  offset="0" style="stop-color:#F4DFBC"/>
			<stop  offset="0.1507" style="stop-color:#F4DFBC"/>
			<stop  offset="0.3616" style="stop-color:#E5C4A0"/>
			<stop  offset="0.6129" style="stop-color:#D6AA85"/>
			<stop  offset="0.7204" style="stop-color:#A67B5E"/>
			<stop  offset="0.8387" style="stop-color:#D6AA85"/>
			<stop  offset="1" style="stop-color:#F4DFBC"/>
		</linearGradient>
		<path class="st10" d="M2.4,2.6C0.3,1,0,2.6,0,2.6C0.4,4.3,2.4,2.6,2.4,2.6z M0.6,2.6C0.6,2.6,0.6,2.6,0.6,2.6c0.1,0.1,0,0.2,0,0.2
			C0.5,2.7,0.5,2.7,0.6,2.6C0.5,2.6,0.5,2.6,0.6,2.6z M0.8,2.6c1-0.5,1.1,0,1.1,0C1.7,3.1,0.8,2.6,0.8,2.6z"/>
	</g>
	<linearGradient id="SVGID_12_" gradientUnits="userSpaceOnUse" x1="7.4373" y1="0.4248" x2="42.4827" y2="-15.52">
		<stop  offset="0" style="stop-color:#F4DFBC"/>
		<stop  offset="0.1507" style="stop-color:#F4DFBC"/>
		<stop  offset="0.3616" style="stop-color:#E5C4A0"/>
		<stop  offset="0.6129" style="stop-color:#D6AA85"/>
		<stop  offset="0.7204" style="stop-color:#A67B5E"/>
		<stop  offset="0.8387" style="stop-color:#D6AA85"/>
		<stop  offset="1" style="stop-color:#F4DFBC"/>
	</linearGradient>
	<path class="st11" d="M2.5,2.9c0.1,0,0.2-0.1,0.2-0.2l0,0c0-0.1-0.1-0.2-0.2-0.2l0,0c-0.1,0-0.2,0.1-0.2,0.2l0,0
		C2.3,2.8,2.4,2.9,2.5,2.9L2.5,2.9z"/>
	<linearGradient id="SVGID_13_" gradientUnits="userSpaceOnUse" x1="7.7282" y1="1.064" x2="42.7737" y2="-14.8809">
		<stop  offset="0" style="stop-color:#F4DFBC"/>
		<stop  offset="0.1507" style="stop-color:#F4DFBC"/>
		<stop  offset="0.3616" style="stop-color:#E5C4A0"/>
		<stop  offset="0.6129" style="stop-color:#D6AA85"/>
		<stop  offset="0.7204" style="stop-color:#A67B5E"/>
		<stop  offset="0.8387" style="stop-color:#D6AA85"/>
		<stop  offset="1" style="stop-color:#F4DFBC"/>
	</linearGradient>
	<path class="st12" d="M4.2,2.9c0.1,0,0.2-0.1,0.2-0.2l0,0c0-0.1-0.1-0.2-0.2-0.2l0,0C4.1,2.4,4,2.5,4,2.7l0,0
		C4,2.8,4.1,2.9,4.2,2.9L4.2,2.9z"/>
	<linearGradient id="SVGID_14_" gradientUnits="userSpaceOnUse" x1="7.5831" y1="0.7454" x2="42.6281" y2="-15.1992">
		<stop  offset="0" style="stop-color:#F4DFBC"/>
		<stop  offset="0.1507" style="stop-color:#F4DFBC"/>
		<stop  offset="0.3616" style="stop-color:#E5C4A0"/>
		<stop  offset="0.6129" style="stop-color:#D6AA85"/>
		<stop  offset="0.7204" style="stop-color:#A67B5E"/>
		<stop  offset="0.8387" style="stop-color:#D6AA85"/>
		<stop  offset="1" style="stop-color:#F4DFBC"/>
	</linearGradient>
	<path class="st13" d="M3.4,3.2c0,0-0.7-0.6-0.7-0.6c0,0,0.7-0.6,0.7-0.6c0.1,0.2,0.7,0.6,0.7,0.6C4.1,2.7,3.5,3,3.4,3.2z"/>
	<g>
		<linearGradient id="SVGID_15_" gradientUnits="userSpaceOnUse" x1="11.0976" y1="8.4697" x2="46.1427" y2="-7.475">
			<stop  offset="0" style="stop-color:#F4DFBC"/>
			<stop  offset="0.1507" style="stop-color:#F4DFBC"/>
			<stop  offset="0.3616" style="stop-color:#E5C4A0"/>
			<stop  offset="0.6129" style="stop-color:#D6AA85"/>
			<stop  offset="0.7204" style="stop-color:#A67B5E"/>
			<stop  offset="0.8387" style="stop-color:#D6AA85"/>
			<stop  offset="1" style="stop-color:#F4DFBC"/>
		</linearGradient>
		<path class="st14" d="M24.5,2.6c0,0-0.2-1.1-1.6,0C22.9,2.7,24.2,3.7,24.5,2.6z M24.1,2.7C24.1,2.7,24.1,2.7,24.1,2.7
			c-0.1,0.1-0.1,0-0.1,0C24,2.6,24.1,2.6,24.1,2.7C24.1,2.6,24.1,2.6,24.1,2.7z M23.2,2.7c0,0,0.1-0.3,0.7,0
			C23.9,2.7,23.4,3,23.2,2.7z"/>
	</g>
	<linearGradient id="SVGID_16_" gradientUnits="userSpaceOnUse" x1="10.9138" y1="8.0665" x2="45.9598" y2="-7.8787">
		<stop  offset="0" style="stop-color:#F4DFBC"/>
		<stop  offset="0.1507" style="stop-color:#F4DFBC"/>
		<stop  offset="0.3616" style="stop-color:#E5C4A0"/>
		<stop  offset="0.6129" style="stop-color:#D6AA85"/>
		<stop  offset="0.7204" style="stop-color:#A67B5E"/>
		<stop  offset="0.8387" style="stop-color:#D6AA85"/>
		<stop  offset="1" style="stop-color:#F4DFBC"/>
	</linearGradient>
	<path class="st15" d="M22.8,2.8c-0.1,0-0.1-0.1-0.1-0.1l0,0c0-0.1,0.1-0.1,0.1-0.1l0,0c0.1,0,0.1,0.1,0.1,0.1l0,0
		C22.9,2.7,22.9,2.8,22.8,2.8L22.8,2.8z"/>
	<linearGradient id="SVGID_17_" gradientUnits="userSpaceOnUse" x1="9.3097" y1="4.5401" x2="44.3549" y2="-11.4046">
		<stop  offset="0" style="stop-color:#F4DFBC"/>
		<stop  offset="0.1507" style="stop-color:#F4DFBC"/>
		<stop  offset="0.3616" style="stop-color:#E5C4A0"/>
		<stop  offset="0.6129" style="stop-color:#D6AA85"/>
		<stop  offset="0.7204" style="stop-color:#A67B5E"/>
		<stop  offset="0.8387" style="stop-color:#D6AA85"/>
		<stop  offset="1" style="stop-color:#F4DFBC"/>
	</linearGradient>
	<rect x="4.2" y="2.6" class="st16" width="18.4" height="0.2"/>
</g>
</svg>
